<?xml version="1.0" encoding="UTF-8"?>
<!DOCTYPE svg PUBLIC "-//W3C//DTD SVG 1.1//EN" "http://www.w3.org/Graphics/SVG/1.1/DTD/svg11.dtd">
<svg xmlns="http://www.w3.org/2000/svg" version="1.1" width="913px" height="913px" style="shape-rendering:geometricPrecision; text-rendering:geometricPrecision; image-rendering:optimizeQuality; fill-rule:evenodd; clip-rule:evenodd" xmlns:xlink="http://www.w3.org/1999/xlink">
<g><path style="opacity:0.997" fill="#000000" d="M 426.5,-0.5 C 446.167,-0.5 465.833,-0.5 485.5,-0.5C 640.536,13.8502 760.369,85.8502 845,215.5C 884.478,280.432 906.978,350.765 912.5,426.5C 912.5,446.167 912.5,465.833 912.5,485.5C 898.15,640.536 826.15,760.369 696.5,845C 631.568,884.478 561.235,906.978 485.5,912.5C 465.833,912.5 446.167,912.5 426.5,912.5C 271.464,898.15 151.631,826.15 67,696.5C 27.5223,631.568 5.02235,561.235 -0.5,485.5C -0.5,465.833 -0.5,446.167 -0.5,426.5C 13.8502,271.464 85.8502,151.631 215.5,67C 280.432,27.5223 350.765,5.02235 426.5,-0.5 Z"/></g>
<g><path style="opacity:1" fill="#fbfbfb" d="M 266.5,210.5 C 283.601,208.253 297.768,213.587 309,226.5C 318.579,242.278 318.913,258.278 310,274.5C 298.317,289.066 283.15,294.566 264.5,291C 240.313,282.132 230.48,264.966 235,239.5C 240.434,224.22 250.934,214.553 266.5,210.5 Z"/></g>
<g><path style="opacity:1" fill="#fefefe" d="M 340.5,337.5 C 339.502,365.328 339.169,393.328 339.5,421.5C 304.167,421.5 268.833,421.5 233.5,421.5C 233.5,387.167 233.5,352.833 233.5,318.5C 261.502,318.667 289.502,318.5 317.5,318C 325.303,311.198 332.803,304.031 340,296.5C 340.5,267.835 340.667,239.169 340.5,210.5C 394.501,210.333 448.501,210.5 502.5,211C 604.313,218.193 674.813,268.693 714,362.5C 735.289,424.886 735.956,487.553 716,550.5C 690.074,623.426 639.907,670.592 565.5,692C 551.366,695.711 537.033,698.377 522.5,700C 461.852,701.453 401.185,701.953 340.5,701.5C 339.091,658.256 317.758,630.089 276.5,617C 269.893,615.621 263.227,614.787 256.5,614.5C 256.5,585.833 256.5,557.167 256.5,528.5C 284.502,528.667 312.502,528.5 340.5,528C 348.363,519.802 356.53,511.969 365,504.5C 365.5,477.169 365.667,449.835 365.5,422.5C 399.833,422.5 434.167,422.5 468.5,422.5C 468.5,456.5 468.5,490.5 468.5,524.5C 441.498,524.333 414.498,524.5 387.5,525C 379.031,534.47 370.197,543.637 361,552.5C 360.5,565.829 360.333,579.163 360.5,592.5C 408.834,592.667 457.168,592.5 505.5,592C 551.47,588.784 582.303,565.618 598,522.5C 610.391,480.437 610.391,438.437 598,396.5C 582.216,352.709 551.382,327.209 505.5,320C 456.5,319.333 407.5,319.333 358.5,320C 352.631,326.036 346.631,331.87 340.5,337.5 Z"/></g>
<g><path style="opacity:1" fill="#040404" d="M 271.5,230.5 C 290.789,232.383 297.622,242.716 292,261.5C 285.381,271.683 276.547,274.183 265.5,269C 255.726,260.306 253.892,250.14 260,238.5C 263.15,234.689 266.983,232.023 271.5,230.5 Z"/></g>
<g><path style="opacity:1" fill="#d4d4d4" d="M 340.5,337.5 C 340.5,365.833 340.5,394.167 340.5,422.5C 304.663,422.832 268.996,422.498 233.5,421.5C 268.833,421.5 304.167,421.5 339.5,421.5C 339.169,393.328 339.502,365.328 340.5,337.5 Z"/></g>
<g><path style="opacity:1" fill="#272727" d="M 444.5,503.5 C 444.5,483.5 444.5,463.5 444.5,443.5C 426.167,443.5 407.833,443.5 389.5,443.5C 389.5,463.5 389.5,483.5 389.5,503.5C 388.503,483.34 388.17,463.007 388.5,442.5C 407.5,442.5 426.5,442.5 445.5,442.5C 445.83,463.007 445.497,483.34 444.5,503.5 Z"/></g>
<g><path style="opacity:1" fill="#000000" d="M 444.5,503.5 C 426.167,503.5 407.833,503.5 389.5,503.5C 389.5,483.5 389.5,463.5 389.5,443.5C 407.833,443.5 426.167,443.5 444.5,443.5C 444.5,463.5 444.5,483.5 444.5,503.5 Z"/></g>
</svg>
